<svg width="42" height="42" viewBox="0 0 42 42" fill="none" xmlns="http://www.w3.org/2000/svg">
<g id="Iconly/Bulk/Calendar">
<g id="Calendar">
<path id="Fill 1" fill-rule="evenodd" clip-rule="evenodd" d="M5.25 29.522V16.1992H36.75V29.6287C36.75 35.122 33.2923 38.4995 27.7599 38.4995H14.2228C8.74232 38.4995 5.25 35.052 5.25 29.522ZM13.9289 25.2171C13.1336 25.2538 12.4767 24.6221 12.4421 23.8188C12.4421 23.0138 13.0645 22.3488 13.8598 22.3121C14.6378 22.3121 15.2774 22.9263 15.2947 23.7121C15.3293 24.5188 14.7069 25.1838 13.9289 25.2171ZM21.0346 25.2171C20.2393 25.2538 19.5823 24.6221 19.5478 23.8188C19.5478 23.0138 20.1701 22.3488 20.9654 22.3121C21.7434 22.3121 22.3831 22.9263 22.4004 23.7121C22.435 24.5188 21.8126 25.1838 21.0346 25.2171ZM28.0884 31.6568C27.2931 31.6393 26.6534 30.9743 26.6534 30.1693C26.6361 29.3643 27.2758 28.7011 28.0711 28.6836H28.0884C28.9009 28.6836 29.5579 29.3486 29.5579 30.1693C29.5579 30.9918 28.9009 31.6568 28.0884 31.6568ZM19.5478 30.1695C19.5823 30.9745 20.2393 31.6063 21.0346 31.5695C21.8126 31.5363 22.435 30.8713 22.4004 30.0663C22.3831 29.2788 21.7434 28.6645 20.9654 28.6645C20.1701 28.7013 19.5478 29.3645 19.5478 30.1695ZM12.4248 30.1695C12.4594 30.9745 13.1164 31.6063 13.9116 31.5695C14.6896 31.5363 15.312 30.8713 15.2774 30.0663C15.2602 29.2788 14.6205 28.6645 13.8425 28.6645C13.0472 28.7013 12.4248 29.3645 12.4248 30.1695ZM26.6707 23.8011C26.6707 22.9961 27.2931 22.3486 28.0884 22.3311C28.8664 22.3311 29.4888 22.9594 29.5233 23.7311C29.5406 24.5361 28.9182 25.2011 28.1402 25.2169C27.345 25.2344 26.688 24.6219 26.6707 23.8186V23.8011Z" fill="#CA77C4"/>
<path id="Fill 4" opacity="0.4" d="M5.25586 16.1997C5.27833 15.1724 5.36478 13.1337 5.52729 12.4774C6.35715 8.78667 9.17521 6.44167 13.2035 6.10742H28.7979C32.7916 6.45917 35.6442 8.81992 36.4741 12.4774C36.6348 13.1162 36.7213 15.1707 36.7438 16.1997H5.25586Z" fill="#CA77C4"/>
<path id="Fill 6" d="M14.5334 11.5325C15.2941 11.5325 15.8646 10.9567 15.8646 10.185V4.84925C15.8646 4.0775 15.2941 3.5 14.5334 3.5C13.7727 3.5 13.2021 4.0775 13.2021 4.84925V10.185C13.2021 10.9567 13.7727 11.5325 14.5334 11.5325Z" fill="#CA77C4"/>
<path id="Fill 9" d="M27.466 11.5325C28.2094 11.5325 28.7972 10.9567 28.7972 10.185V4.84925C28.7972 4.0775 28.2094 3.5 27.466 3.5C26.7053 3.5 26.1348 4.0775 26.1348 4.84925V10.185C26.1348 10.9567 26.7053 11.5325 27.466 11.5325Z" fill="#CA77C4"/>
</g>
</g>
</svg>
