<svg width="42" height="42" viewBox="0 0 42 42" fill="none" xmlns="http://www.w3.org/2000/svg">
<g id="Iconly/Bulk/Bag 3">
<g id="Bag 2">
<path id="Fill 4" opacity="0.4" d="M29.0855 38.5H12.9145C8.20616 38.5 4.375 34.7043 4.375 30.038V20.712C4.375 16.0456 8.20616 12.25 12.9145 12.25H29.0855C33.7938 12.25 37.625 16.0456 37.625 20.712V30.038C37.625 34.7043 33.7938 38.5 29.0855 38.5Z" fill="#CA77C4"/>
<path id="Fill 1" d="M27.5715 17.5C26.8519 17.5 26.268 16.9336 26.268 16.2357V11.1246C26.268 8.31445 23.9112 6.0286 21.0156 6.0286C19.6826 6.0286 18.2835 6.5478 17.2876 7.50361C16.2899 8.46279 15.7373 9.73889 15.732 11.101V16.2357C15.732 16.9336 15.1481 17.5 14.4285 17.5C13.709 17.5 13.125 16.9336 13.125 16.2357V11.1246C13.1337 9.0528 13.961 7.14118 15.4522 5.70999C16.9417 4.27544 18.8674 3.55563 21.0209 3.5C25.3485 3.5 28.875 6.92035 28.875 11.1246V16.2357C28.875 16.9336 28.291 17.5 27.5715 17.5Z" fill="#CA77C4"/>
</g>
</g>
</svg>
