<svg width="42" height="42" viewBox="0 0 42 42" fill="none" xmlns="http://www.w3.org/2000/svg">
<path opacity="0.4" d="M21.035 3.5C10.8675 3.5 3.5 11.795 3.5 21C3.5 23.94 4.3575 26.9675 5.8625 29.7325C6.1425 30.1875 6.1775 30.765 5.985 31.3075L4.8125 35.2275C4.55 36.1725 5.355 36.8725 6.2475 36.5925L9.7825 35.5425C10.745 35.2275 11.4975 35.63 12.3917 36.1725C14.9467 37.6775 18.13 38.4475 21 38.4475C29.68 38.4475 38.5 31.745 38.5 20.9475C38.5 11.6375 30.975 3.5 21.035 3.5Z" fill="#4ABCBD"/>
<path fill-rule="evenodd" clip-rule="evenodd" d="M20.9654 23.2576C19.7229 23.2401 18.7254 22.2426 18.7254 21.0001C18.7254 19.7751 19.7404 18.7601 20.9654 18.7776C22.2079 18.7776 23.2054 19.7751 23.2054 21.0176C23.2054 22.2426 22.2079 23.2576 20.9654 23.2576ZM12.8972 23.2575C11.6722 23.2575 10.6572 22.2425 10.6572 21.0175C10.6572 19.775 11.6547 18.7775 12.8972 18.7775C14.1397 18.7775 15.1372 19.775 15.1372 21.0175C15.1372 22.2425 14.1397 23.24 12.8972 23.2575ZM26.7926 21.0176C26.7926 22.2426 27.7901 23.2576 29.0326 23.2576C30.2751 23.2576 31.2726 22.2426 31.2726 21.0176C31.2726 19.7751 30.2751 18.7776 29.0326 18.7776C27.7901 18.7776 26.7926 19.7751 26.7926 21.0176Z" fill="#4ABCBD"/>
</svg>
