<svg width="42" height="42" viewBox="0 0 42 42" fill="none" xmlns="http://www.w3.org/2000/svg">
<g id="Iconly/Bulk/Discovery">
<g id="Discovery">
<path id="Fill 1" opacity="0.4" d="M38.5 21C38.5 30.6652 30.6652 38.5 21 38.5C11.3348 38.5 3.5 30.6652 3.5 21C3.5 11.3365 11.3348 3.5 21 3.5C30.6652 3.5 38.5 11.3365 38.5 21Z" fill="#5E4ECE"/>
<path id="Fill 4" d="M27.7547 15.2335L24.9197 24.1935C24.8147 24.561 24.5172 24.8585 24.1497 24.9653L15.2247 27.7635C14.6297 27.9578 14.0522 27.3785 14.2447 26.7835L17.0447 17.806C17.1497 17.4385 17.4472 17.1585 17.8147 17.036L26.7747 14.236C27.3872 14.0435 27.9472 14.621 27.7547 15.2335Z" fill="#5E4ECE"/>
</g>
</g>
</svg>
