<svg width="42" height="42" viewBox="0 0 42 42" fill="none" xmlns="http://www.w3.org/2000/svg">
<g id="Iconly/Bulk/Time Circle">
<g id="Time Circle">
<path id="Fill 1" opacity="0.4" d="M38.5 20.9999C38.5 30.6669 30.6652 38.4999 21 38.4999C11.3348 38.4999 3.5 30.6669 3.5 20.9999C3.5 11.3364 11.3348 3.49988 21 3.49988C30.6652 3.49988 38.5 11.3364 38.5 20.9999Z" fill="#5E4ECE"/>
<path id="Fill 4" d="M27.2535 27.6751C27.0243 27.6751 26.7933 27.6156 26.5815 27.4914L19.711 23.3929C19.3155 23.1549 19.0723 22.7261 19.0723 22.2641V13.4319C19.0723 12.7074 19.6603 12.1194 20.3848 12.1194C21.1093 12.1194 21.6973 12.7074 21.6973 13.4319V21.5186L27.9273 25.2339C28.5485 25.6066 28.7533 26.4116 28.3823 27.0346C28.1355 27.4459 27.6998 27.6751 27.2535 27.6751Z" fill="#5E4ECE"/>
</g>
</g>
</svg>
