<svg width="91" height="124" viewBox="0 0 91 124" fill="none" xmlns="http://www.w3.org/2000/svg">
    <g clip-path="url(#clip0)">
        <path
            d="M17.3838 91.2374V99.4085C17.3838 100.951 18.6562 102.205 20.2223 102.205H70.899C72.465 102.205 73.7374 100.951 73.7374 99.4085V91.2374C73.7374 80.2221 64.6837 71.3038 53.501 71.3038H37.5713C26.462 71.3038 17.3838 80.2221 17.3838 91.2374Z"
            fill="#8CBAFA" />
        <path
            d="M53.5506 71.3038H47.1641C58.3222 71.3038 67.4005 80.2221 67.4005 91.2374V99.4085C67.4005 100.951 66.1281 102.205 64.562 102.205H70.9486C72.5146 102.205 73.7871 100.951 73.7871 99.4085V91.2374C73.7626 80.2221 64.7088 71.3038 53.5506 71.3038Z"
            fill="#5692D8" />
        <path
            d="M44.8875 61.5419C37.4732 61.8794 31.4047 65.6154 30.9398 72.9188C30.5483 79.0652 34.0719 84.4402 39.2595 86.8747C39.7734 87.1157 40.3606 86.7301 40.3606 86.1516C40.3606 86.1516 40.3606 86.1516 40.3606 86.1275C40.3606 82.2468 42.6852 79.1134 45.5482 79.1134C48.4111 79.1134 50.7358 82.2468 50.7358 86.1275V86.1516C50.7358 86.7301 51.323 87.1157 51.8369 86.8747C56.7798 84.5608 60.2055 79.5954 60.2055 73.8347C60.23 65.6395 53.3051 61.1562 44.8875 61.5419Z"
            fill="#E9E9EA" />
        <path
            d="M69.1862 14.1062C63.9986 2.6811 51.9351 -1.70574 39.6513 2.6811C29.7411 6.20022 22.1555 3.01855 18.1914 0.776926C17.0169 0.126131 15.6221 0.897444 15.4019 2.31955C14.0071 11.4307 13.4198 33.847 25.7281 43.7053H67.718C72.6609 37.9205 83.868 15.2872 69.1862 14.1062Z"
            fill="#575B7A" />
        <path
            d="M69.1861 14.1062C64.4146 3.62116 53.8926 -0.934405 42.71 1.76519C51.4456 1.50005 59.1536 6.10382 62.9708 14.8534C76.6249 16.0104 67.1307 36.9563 62.1389 43.7053H67.718C72.6608 37.9205 83.868 15.2873 69.1861 14.1062Z"
            fill="#252D4C" />
        <path
            d="M34.4395 57.4202V67.3026C34.4395 73.3526 39.4313 78.2697 45.5732 78.2697C51.715 78.2697 56.7069 73.3526 56.7069 67.3026V57.4202H34.4395Z"
            fill="#FFD2C0" />
        <path
            d="M56.7313 67.3026V57.4202H34.4639V67.2544C37.7183 69.8335 41.8292 71.352 46.3072 71.352H48.0445C51.1032 71.352 53.9907 70.6289 56.5355 69.3755C56.6579 68.7006 56.7313 68.0016 56.7313 67.3026Z"
            fill="#EDAA9D" />
        <path
            d="M69.3578 37.125H65.3937V34.1362C65.3937 29.7253 63.3138 25.7964 60.0838 23.2414C59.0805 22.446 57.6613 22.3737 56.5601 23.0245C53.3546 24.9287 49.6107 26.0133 45.5977 26.0133C41.5847 26.0133 37.8408 24.9287 34.6353 23.0245C33.5097 22.3737 32.1149 22.446 31.1117 23.2414C27.8817 25.7964 25.8018 29.7253 25.8018 34.1362V37.125H21.8132C19.1949 37.125 16.9682 39.1256 16.8703 41.7047C16.7725 44.4043 18.9747 46.6459 21.6909 46.6459H25.7773V48.4778C25.7773 58.77 34.2438 67.1339 44.7168 67.1339H46.4542C56.9027 67.1339 65.3937 58.7941 65.3937 48.4778V46.6459H69.4801C72.1962 46.6459 74.3985 44.4284 74.3006 41.7047C74.2028 39.1256 71.976 37.125 69.3578 37.125Z"
            fill="#FFD2C0" />
        <path
            d="M33.5099 37.9928C33.1428 37.9928 32.7758 37.8963 32.4577 37.6553C31.6257 37.0768 31.43 35.944 32.0172 35.1244C33.2162 33.4613 34.5865 32.5936 36.0547 32.5936C37.5229 32.5936 38.8687 33.4372 40.0922 35.1244C40.6795 35.944 40.4837 37.0768 39.6518 37.6553C38.8198 38.2338 37.6697 38.041 37.0825 37.2214C36.4218 36.3055 36.0547 36.2332 36.0547 36.2332C36.0547 36.2332 35.6877 36.3055 35.027 37.2214C34.66 37.7276 34.0972 37.9928 33.5099 37.9928Z"
            fill="#252D4C" />
        <path
            d="M57.661 37.9928C57.0738 37.9928 56.511 37.7276 56.1684 37.2214C55.5077 36.3055 55.1407 36.2332 55.1407 36.2332C55.1407 36.2332 54.7736 36.3055 54.1129 37.2214C53.5257 38.041 52.3756 38.2338 51.5436 37.6553C50.7117 37.0768 50.5159 35.944 51.1032 35.1244C52.3022 33.4613 53.6725 32.5936 55.1407 32.5936C56.6088 32.5936 57.9547 33.4372 59.1782 35.1244C59.7654 35.944 59.5697 37.0768 58.7377 37.6553C58.3951 37.8963 58.0281 37.9928 57.661 37.9928Z"
            fill="#252D4C" />
        <path
            d="M45.5734 55.6366C41.6094 55.6366 37.9634 53.3467 36.2994 49.8035C35.8835 48.8876 36.275 47.827 37.2048 47.3931C38.1347 46.9834 39.2113 47.369 39.6518 48.285C40.704 50.5507 43.0531 52.021 45.5734 52.021C48.0938 52.021 50.4429 50.5507 51.4951 48.285C51.9111 47.369 53.0122 46.9834 53.9421 47.3931C54.8719 47.8029 55.2634 48.8876 54.8474 49.8035C53.1835 53.3226 49.5375 55.6366 45.5734 55.6366Z"
            fill="#252D4C" />
        <path
            d="M74.3249 123.946H16.8212C7.81638 123.946 0.524414 116.763 0.524414 107.893C0.524414 99.0229 7.81638 91.84 16.8212 91.84H74.3249C83.3298 91.84 90.6217 99.0229 90.6217 107.893C90.6217 116.763 83.3298 123.946 74.3249 123.946Z"
            fill="#ED5176" />
        <path
            d="M26.0948 111.533L27.0491 115.606C27.3917 117.004 25.8501 118.113 24.5777 117.366L20.9317 115.196C20.4178 114.883 19.7571 114.883 19.2188 115.196L15.5728 117.366C14.3249 118.113 12.7833 117.004 13.1014 115.606L14.0557 111.533C14.2025 110.954 13.9823 110.327 13.5174 109.942L10.3118 107.194C9.21071 106.254 9.79798 104.47 11.2417 104.35L15.4749 103.988C16.0867 103.94 16.625 103.554 16.8452 103L18.5092 99.1434C19.072 97.8177 20.9806 97.8177 21.5434 99.1434L23.2074 103C23.4521 103.554 23.9659 103.94 24.5777 103.988L28.8109 104.35C30.2546 104.47 30.8664 106.254 29.7408 107.194L26.5352 109.942C26.1682 110.327 25.948 110.954 26.0948 111.533Z"
            fill="#FFCD34" />
        <path
            d="M51.5684 111.533L52.5227 115.606C52.8653 117.004 51.2993 118.113 50.0513 117.366L46.4053 115.196C45.8915 114.883 45.2308 114.883 44.6924 115.196L41.0465 117.366C39.7985 118.113 38.2569 117.004 38.575 115.606L39.5293 111.533C39.6762 110.954 39.4559 110.327 38.991 109.942L35.7855 107.194C34.6843 106.254 35.2716 104.47 36.7153 104.35L40.9486 103.988C41.5603 103.94 42.0987 103.554 42.3189 103L43.9828 99.1434C44.5456 97.8177 46.4543 97.8177 47.0171 99.1434L48.681 103C48.9257 103.554 49.4396 103.94 50.0513 103.988L54.2846 104.35C55.7283 104.47 56.34 106.254 55.2144 107.194L52.0089 109.942C51.6418 110.327 51.4461 110.954 51.5684 111.533Z"
            fill="#FFCD34" />
        <path
            d="M77.0655 111.533L78.0198 115.606C78.3624 117.004 76.7963 118.113 75.5484 117.366L71.9024 115.196C71.3885 114.883 70.7278 114.883 70.1895 115.196L66.5435 117.366C65.2956 118.113 63.754 117.004 64.0721 115.606L65.0264 111.533C65.1732 110.954 64.953 110.327 64.4881 109.942L61.2826 107.194C60.1814 106.254 60.7687 104.47 62.2124 104.35L66.4456 103.988C67.0574 103.94 67.5957 103.554 67.8159 103L69.4799 99.1434C70.0427 97.8177 71.9513 97.8177 72.5141 99.1434L74.1781 103C74.4228 103.554 74.9366 103.94 75.5484 103.988L79.7816 104.35C81.2253 104.47 81.8371 106.254 80.7115 107.194L77.5059 109.942C77.1144 110.327 76.9187 110.954 77.0655 111.533Z"
            fill="#FFCD34" />
    </g>
    <defs>
        <clipPath id="clip0">
            <rect width="90.1218" height="123.41" fill="white" transform="translate(0.524414 0.535889)" />
        </clipPath>
    </defs>
</svg>