<svg width="42" height="42" viewBox="0 0 42 42" fill="none" xmlns="http://www.w3.org/2000/svg">
<g id="Iconly/Bulk/Folder">
<g id="Folder">
<path id="Folder 2" opacity="0.4" d="M29.5476 8.95092H24.3972C23.1141 8.9594 21.896 8.38865 21.0829 7.39807L19.3869 5.05328C18.5874 4.05401 17.3693 3.48059 16.0881 3.50044H12.4471C5.91183 3.50044 3.50002 7.33596 3.50002 13.8579V20.9078C3.49189 21.6831 38.4924 21.6821 38.4946 20.9078V18.8581C38.5257 12.3361 36.1762 8.95092 29.5476 8.95092Z" fill="#5E4ECE"/>
<path id="Folder_2" fill-rule="evenodd" clip-rule="evenodd" d="M36.4562 11.4509C37.0161 12.1055 37.4488 12.8586 37.7322 13.6714C38.2897 15.3421 38.5478 17.0978 38.4946 18.8579V28.0508C38.4924 28.8251 38.4352 29.5983 38.3234 30.3645C38.1107 31.7168 37.6349 33.0145 36.923 34.1845C36.5958 34.7497 36.1985 35.2714 35.7405 35.7374C33.667 37.6403 30.9137 38.6309 28.1005 38.4859H13.8786C11.0609 38.6298 8.30308 37.6397 6.22302 35.7374C5.77046 35.2705 5.37839 34.7488 5.05601 34.1845C4.34831 33.0153 3.88271 31.7164 3.68672 30.3645C3.56211 29.5996 3.49966 28.8258 3.5 28.0508V18.8579C3.4997 18.0902 3.54125 17.323 3.62448 16.5597C3.64199 16.4258 3.66824 16.2941 3.69422 16.1637C3.73753 15.9464 3.78008 15.7329 3.78008 15.5193C3.93804 14.5983 4.22618 13.7042 4.63589 12.864C5.84957 10.2707 8.33919 8.9508 12.4159 8.9508H29.532C31.8154 8.77421 34.0818 9.4616 35.8805 10.8763C36.0877 11.052 36.2802 11.2441 36.4562 11.4509ZM12.1981 27.1969H29.8121H29.8432C30.2297 27.2137 30.6068 27.0754 30.8904 26.8128C31.174 26.5502 31.3404 26.1852 31.3525 25.7994C31.3744 25.4602 31.2627 25.1259 31.0413 24.8677C30.7867 24.5206 30.3831 24.3135 29.9521 24.3086H12.1981C11.3989 24.3086 10.751 24.9552 10.751 25.7528C10.751 26.5504 11.3989 27.1969 12.1981 27.1969Z" fill="#5E4ECE"/>
</g>
</g>
</svg>
