<svg width="42" height="42" viewBox="0 0 42 42" fill="none" xmlns="http://www.w3.org/2000/svg">
<path opacity="0.4" d="M29.1822 3.5H12.8333C6.87556 3.5 3.5 6.87556 3.5 12.8333V29.1667C3.5 35.1244 6.87556 38.5 12.8333 38.5H29.1822C35.14 38.5 38.5 35.1244 38.5 29.1667V12.8333C38.5 6.87556 35.14 3.5 29.1822 3.5Z" fill="#4ABCBD"/>
<path d="M12.8949 16.3955C12.1016 16.3955 11.4482 17.0488 11.4482 17.8577V29.8822C11.4482 30.6755 12.1016 31.3288 12.8949 31.3288C13.7038 31.3288 14.3571 30.6755 14.3571 29.8822V17.8577C14.3571 17.0488 13.7038 16.3955 12.8949 16.3955Z" fill="#4ABCBD"/>
<path d="M21.0619 10.6558C20.2686 10.6558 19.6152 11.3091 19.6152 12.118V29.8824C19.6152 30.6758 20.2686 31.3291 21.0619 31.3291C21.8708 31.3291 22.5241 30.6758 22.5241 29.8824V12.118C22.5241 11.3091 21.8708 10.6558 21.0619 10.6558Z" fill="#4ABCBD"/>
<path d="M29.1194 22.7422C28.3106 22.7422 27.6572 23.3955 27.6572 24.2044V29.8822C27.6572 30.6755 28.3106 31.3289 29.1039 31.3289C29.9128 31.3289 30.5661 30.6755 30.5661 29.8822V24.2044C30.5661 23.3955 29.9128 22.7422 29.1194 22.7422Z" fill="#4ABCBD"/>
</svg>
