<svg width="42" height="42" viewBox="0 0 42 42" fill="none" xmlns="http://www.w3.org/2000/svg">
<path opacity="0.4" d="M23.2844 10.2943V10.6146C22.4257 10.5977 21.567 10.5977 20.7083 10.5977V10.3111C20.7083 9.14783 19.7294 8.20371 18.5616 8.20371H16.8614C14.9208 8.20371 13.3408 6.65267 13.3408 4.76444C13.3408 4.07321 13.9247 3.5 14.6288 3.5C15.3501 3.5 15.9169 4.07321 15.9169 4.76444C15.9169 5.27021 16.3462 5.67483 16.8614 5.67483H18.5616C21.1549 5.69169 23.2672 7.76537 23.2844 10.2943Z" fill="#4ABCBD"/>
<path fill-rule="evenodd" clip-rule="evenodd" d="M26.537 10.6448C27.0884 10.6523 27.6411 10.6599 28.1958 10.6656C34.1551 10.6656 38.5 14.9141 38.5 20.7811V28.3171C38.5 34.1841 34.1551 38.4327 28.1958 38.4327C25.8086 38.4832 23.4215 38.5001 21.0172 38.5001C18.6129 38.5001 16.1914 38.4832 13.8042 38.4327C7.84495 38.4327 3.5 34.1841 3.5 28.3171V20.7811C3.5 14.9141 7.84495 10.6656 13.8214 10.6656C16.0711 10.6319 18.3724 10.5981 20.708 10.5981C21.5667 10.5981 22.4254 10.5981 23.2841 10.615C24.3667 10.615 25.4494 10.6299 26.537 10.6448ZM18.9906 25.8051H17.1874V27.5922C17.1874 28.2834 16.6034 28.8566 15.8993 28.8566C15.178 28.8566 14.6113 28.2834 14.6113 27.5922V25.8051H12.7909C12.0868 25.8051 11.5029 25.2487 11.5029 24.5407C11.5029 23.8494 12.0868 23.2762 12.7909 23.2762H14.6113V21.506C14.6113 20.8148 15.178 20.2416 15.8993 20.2416C16.6034 20.2416 17.1874 20.8148 17.1874 21.506V23.2762H18.9906C19.6947 23.2762 20.2786 23.8494 20.2786 24.5407C20.2786 25.2487 19.6947 25.8051 18.9906 25.8051ZM26.2894 22.9559H26.4611C27.1652 22.9559 27.7491 22.3995 27.7491 21.6914C27.7491 21.0002 27.1652 20.427 26.4611 20.427H26.2894C25.5681 20.427 25.0013 21.0002 25.0013 21.6914C25.0013 22.3995 25.5681 22.9559 26.2894 22.9559ZM29.2261 28.7555H29.3979C30.102 28.7555 30.6859 28.1991 30.6859 27.491C30.6859 26.7998 30.102 26.2266 29.3979 26.2266H29.2261C28.5049 26.2266 27.9381 26.7998 27.9381 27.491C27.9381 28.1991 28.5049 28.7555 29.2261 28.7555Z" fill="#4ABCBD"/>
</svg>
