<svg width="42" height="42" viewBox="0 0 42 42" fill="none" xmlns="http://www.w3.org/2000/svg">
<g id="Iconly/Bulk/Document">
<g id="Document">
<path id="Path" opacity="0.4" d="M28.3342 3.5H13.6675C8.3475 3.5 5.25 6.615 5.25 11.9525V30.03C5.25 35.455 8.3475 38.5 13.6675 38.5H28.3342C33.74 38.5 36.75 35.455 36.75 30.03V11.9525C36.75 6.615 33.74 3.5 28.3342 3.5Z" fill="#5E4ECE"/>
<path id="Combined Shape" fill-rule="evenodd" clip-rule="evenodd" d="M14.1397 11.6375V11.655C13.3855 11.655 12.7747 12.2675 12.7747 13.02C12.7747 13.7725 13.3855 14.385 14.1397 14.385H19.3705C20.1247 14.385 20.7372 13.7725 20.7372 13.0007C20.7372 12.25 20.1247 11.6375 19.3705 11.6375H14.1397ZM27.8597 22.2948H14.1397C13.3855 22.2948 12.7747 21.6823 12.7747 20.9298C12.7747 20.1773 13.3855 19.563 14.1397 19.563H27.8597C28.6122 19.563 29.2247 20.1773 29.2247 20.9298C29.2247 21.6823 28.6122 22.2948 27.8597 22.2948ZM27.8597 30.2924H14.1397C13.6147 30.3624 13.1072 30.0999 12.8272 29.6624C12.5472 29.2074 12.5472 28.6299 12.8272 28.1924C13.1072 27.7374 13.6147 27.4924 14.1397 27.5449H27.8597C28.5579 27.6149 29.0847 28.2099 29.0847 28.9274C29.0847 29.6257 28.5579 30.2224 27.8597 30.2924Z" fill="#5E4ECE"/>
</g>
</g>
</svg>
