<svg width="116" height="116" viewBox="0 0 116 116" fill="none" xmlns="http://www.w3.org/2000/svg">
    <path
        d="M12.0774 103.947L1.10642 41.7316C0.994469 41.1278 0.9273 40.524 0.90491 39.9201C0.748181 32.8756 5.80827 26.7704 12.7939 25.6522L33.9523 21.9175L33.3701 103.947H12.0774Z"
        fill="#35495E" />
    <path
        d="M93.5539 101.219C93.1956 102.739 91.9642 103.902 90.4193 104.171L28.1085 115.173C24.1903 115.867 20.1601 114.816 17.048 112.333C13.9358 109.829 12.055 106.139 11.8759 102.158C11.7192 95.4041 16.3763 89.5001 22.9589 88.0688L40.4005 92.9665H40.3781L24.6829 95.7172C22.9365 96.0303 21.414 97.1037 20.5408 98.6468C19.6676 100.19 19.5332 102.046 20.1825 103.701C21.302 106.362 24.1455 107.883 26.989 107.324L74.6121 98.9375L93.5539 101.219Z"
        fill="#2C3E50" />
    <path
        d="M40.4001 92.9442L24.6825 95.7172C22.9361 96.0303 21.4136 97.1038 20.5404 98.6469C19.6672 100.19 19.5328 102.046 20.1821 103.701C21.3016 106.362 24.1451 107.883 26.9886 107.324L74.6117 98.9376L40.4001 92.9442Z"
        fill="#F9EAB0" />
    <path
        d="M26.1162 66.3762L37.1096 4.16081C37.5126 2.01391 39.5501 0.605002 41.6995 0.962819L103.518 11.8539C110.503 12.9944 115.563 19.0773 115.407 26.1442C115.384 26.748 115.317 27.3518 115.205 27.9556L104.212 90.171L26.1162 66.3762Z"
        fill="#9C65C8" />
    <path
        d="M90.576 21.5597C90.464 21.5597 90.3521 21.5597 90.2401 21.5373L45.4605 13.643C44.453 13.397 43.8037 12.413 43.9828 11.3843C44.1619 10.3555 45.1023 9.66226 46.1546 9.77408L90.9118 17.646C91.9194 17.825 92.6358 18.7419 92.5463 19.7706C92.4567 20.7769 91.6059 21.5597 90.576 21.5597Z"
        fill="#ECF0F1" />
    <path
        d="M81.0826 29.9013C80.9706 29.9013 80.8587 29.9013 80.7467 29.8789L51.5504 24.7353C50.4981 24.5117 49.804 23.5053 50.0055 22.4542C50.1846 21.4031 51.1922 20.6875 52.2445 20.844L81.4408 25.9877C82.4483 26.1666 83.1648 27.0835 83.0753 28.1122C82.9633 29.1186 82.1125 29.9013 81.0826 29.9013Z"
        fill="#ECF0F1" />
    <path
        d="M44.3188 31.5115L85.2025 38.7349C86.2773 38.9138 86.9937 39.9425 86.8146 41.016L83.3666 60.4723C83.1875 61.5457 82.1575 62.2614 81.0828 62.0825L40.1991 54.859C39.1244 54.6801 38.4079 53.6514 38.587 52.5779L42.035 33.1217C42.2141 32.0258 43.2441 31.3102 44.3188 31.5115Z"
        fill="#ECF0F1" />
    <path
        d="M115.384 26.1218C115.361 26.7256 115.294 27.3295 115.182 27.9333L104.189 90.1263L88.9414 85.4971L97.7854 35.4698L99.89 23.6618L102.017 11.5855L103.495 11.8315C110.48 12.9721 115.54 19.0549 115.384 26.1218Z"
        fill="#6C38D0" />
    <path
        d="M92.5238 74.047L30.6831 63.1783C30.4592 63.1336 30.2129 63.1112 29.9891 63.1112C27.9516 63.1112 26.2276 64.6766 26.0708 66.7117C25.8917 68.7468 27.3023 70.5806 29.3174 70.9384L91.6058 81.8966C93.3522 82.2097 94.8747 83.3055 95.7479 84.8486C96.6211 86.3917 96.7554 88.2478 96.1061 89.9027C94.9866 92.564 92.1655 94.0847 89.322 93.5256L27.2799 82.6122C27.056 82.5675 26.8097 82.5451 26.5858 82.5451C24.5259 82.5451 22.8243 84.1106 22.6452 86.1457C22.4661 88.1807 23.8766 90.0369 25.8917 90.3724L88.1801 101.331C92.0983 102.024 96.1285 100.973 99.2407 98.4903C102.353 96.008 104.234 92.2956 104.413 88.3149C104.569 81.2704 99.487 75.1875 92.5238 74.047Z"
        fill="#5624B6" />
    <path
        d="M96.1065 89.9251C94.987 92.5864 92.1659 94.1071 89.3224 93.548L27.2803 82.6346L29.3401 70.9608L91.6285 81.9189C93.375 82.232 94.8975 83.3279 95.7707 84.8709C96.6215 86.414 96.7334 88.2702 96.1065 89.9251Z"
        fill="#F9EAB0" />
</svg>