<svg width="42" height="42" viewBox="0 0 42 42" fill="none" xmlns="http://www.w3.org/2000/svg">
<g id="Iconly/Bulk/Filter">
<g id="Filter">
<path id="Fill 1" opacity="0.4" d="M17.6458 27.9268H6.1386C4.68222 27.9268 3.5 29.0882 3.5 30.5191C3.5 31.948 4.68222 33.1114 6.1386 33.1114H17.6458C19.1021 33.1114 20.2844 31.948 20.2844 30.5191C20.2844 29.0882 19.1021 27.9268 17.6458 27.9268Z" fill="#4ABCBD"/>
<path id="Fill 4" opacity="0.4" d="M38.5002 11.1627C38.5002 9.73375 37.318 8.57227 35.8635 8.57227H24.3564C22.9 8.57227 21.7178 9.73375 21.7178 11.1627C21.7178 12.5935 22.9 13.755 24.3564 13.755H35.8635C37.318 13.755 38.5002 12.5935 38.5002 11.1627Z" fill="#4ABCBD"/>
<path id="Fill 6" d="M15.536 11.1625C15.536 14.4292 12.843 17.0769 9.51802 17.0769C6.19498 17.0769 3.5 14.4292 3.5 11.1625C3.5 7.89772 6.19498 5.25 9.51802 5.25C12.843 5.25 15.536 7.89772 15.536 11.1625Z" fill="#4ABCBD"/>
<path id="Fill 9" d="M38.4999 30.4486C38.4999 33.7133 35.8069 36.3611 32.4819 36.3611C29.1589 36.3611 26.4639 33.7133 26.4639 30.4486C26.4639 27.1819 29.1589 24.5342 32.4819 24.5342C35.8069 24.5342 38.4999 27.1819 38.4999 30.4486Z" fill="#4ABCBD"/>
</g>
</g>
</svg>
