<svg width="42" height="42" viewBox="0 0 42 42" fill="none" xmlns="http://www.w3.org/2000/svg">
<g id="Iconly/Bulk/Work">
<g id="Work">
<path id="Fill 1" opacity="0.4" d="M3.5 19.3877C3.5875 23.4792 3.8325 30.4774 3.8675 31.2492C3.99175 32.8994 4.6235 34.5672 5.607 35.7432C6.9755 37.3934 8.66075 38.1302 11.011 38.1302C14.259 38.1477 17.8395 38.1477 21.3167 38.1477C24.808 38.1477 28.196 38.1477 31.0572 38.1302C33.3742 38.1302 35.112 37.3742 36.463 35.7432C37.4465 34.5672 38.0782 32.8819 38.1675 31.2492C38.2025 30.5999 38.3775 23.0032 38.4825 19.3877H3.5Z" fill="#CA77C4"/>
<path id="Fill 4" d="M19.6787 26.9229V29.1874C19.6787 29.9119 20.2667 30.4999 20.9912 30.4999C21.7157 30.4999 22.3037 29.9119 22.3037 29.1874V26.9229C22.3037 26.1984 21.7157 25.6104 20.9912 25.6104C20.2667 25.6104 19.6787 26.1984 19.6787 26.9229Z" fill="#CA77C4"/>
<path id="Fill 6" fill-rule="evenodd" clip-rule="evenodd" d="M17.8693 25.474C17.6943 26.1092 17.0835 26.5152 16.422 26.4277C11.9578 25.8047 7.69125 24.221 4.08975 21.8427C3.7205 21.6012 3.5 21.1882 3.5 20.7472V14.6817C3.5 11.0067 6.496 8.01773 10.1798 8.01773H13.622C13.951 5.47673 16.1035 3.50098 18.732 3.50098H23.2505C25.8773 3.50098 28.0315 5.47673 28.3605 8.01773H31.8203C35.4935 8.01773 38.4825 11.0067 38.4825 14.6817V20.7472C38.4825 21.1882 38.2603 21.5995 37.8945 21.8427C34.286 24.2315 30.002 25.8222 25.508 26.4435C25.4468 26.4522 25.3873 26.4557 25.3278 26.4557C24.7345 26.4557 24.2043 26.055 24.0555 25.467C23.702 24.074 22.4368 23.0992 20.9825 23.0992C19.509 23.0992 18.2578 24.053 17.8693 25.474ZM23.2505 6.12598H18.732C17.5543 6.12598 16.5708 6.93098 16.2768 8.01773H25.704C25.41 6.93098 24.4265 6.12598 23.2505 6.12598Z" fill="#CA77C4"/>
</g>
</g>
</svg>
