<svg width="42" height="42" viewBox="0 0 42 42" fill="none" xmlns="http://www.w3.org/2000/svg">
<g id="Iconly/Bulk/Star">
<g id="Star">
<path id="Fill 1" opacity="0.4" d="M22.7085 5.44882L26.6049 13.2788C26.8919 13.8461 27.4398 14.24 28.0717 14.3276L36.8236 15.6022C37.3347 15.674 37.7985 15.9437 38.1118 16.3551C38.4216 16.7613 38.5547 17.2761 38.4794 17.7821C38.4181 18.2023 38.2204 18.591 37.9175 18.8887L31.5759 25.036C31.1121 25.465 30.902 26.1006 31.0141 26.7221L32.5754 35.3645C32.7417 36.4081 32.0503 37.3921 31.0141 37.5899C30.587 37.6582 30.1494 37.5864 29.7643 37.3903L21.9576 33.323C21.3782 33.0306 20.6938 33.0306 20.1145 33.323L12.3078 37.3903C11.3486 37.8998 10.1601 37.5531 9.62622 36.6077C9.42843 36.2312 9.35841 35.8023 9.42318 35.3838L10.9845 26.7397C11.0965 26.1198 10.8847 25.4808 10.4226 25.0518L4.08103 18.9079C3.32662 18.1795 3.30386 16.9802 4.03027 16.2256C4.04602 16.2098 4.06353 16.1923 4.08103 16.1748C4.38209 15.8684 4.77768 15.674 5.20477 15.6232L13.9566 14.3468C14.5868 14.2576 15.1347 13.8671 15.4235 13.2963L19.1798 5.44882C19.5141 4.77648 20.2072 4.35802 20.9599 4.37553H21.1945C21.8473 4.45432 22.4162 4.85877 22.7085 5.44882Z" fill="#5E4ECE"/>
<path id="Fill 4" d="M20.986 33.105C20.647 33.1155 20.3168 33.2065 20.0198 33.3694L12.2513 37.4275C11.3007 37.8811 10.1632 37.5291 9.63031 36.6201C9.43286 36.2488 9.36122 35.8232 9.42762 35.4063L10.9792 26.7805C11.0841 26.1535 10.8744 25.516 10.4183 25.0746L4.07389 18.9323C3.3208 18.195 3.30682 16.9847 4.04419 16.2299C4.05467 16.2194 4.06341 16.2106 4.07389 16.2018C4.37443 15.9041 4.76233 15.7079 5.17993 15.6466L13.9392 14.3576C14.5734 14.277 15.1238 13.8812 15.4034 13.3067L19.2108 5.36046C19.5725 4.71943 20.2661 4.33762 21 4.3779C20.986 4.89808 20.986 32.7512 20.986 33.105Z" fill="#5E4ECE"/>
</g>
</g>
</svg>
