<svg width="42" height="42" viewBox="0 0 42 42" fill="none" xmlns="http://www.w3.org/2000/svg">
<g id="Iconly/Bulk/Time Circle">
<g id="Time Circle">
<path id="Fill 1" opacity="0.4" d="M38.5 21C38.5 30.667 30.6652 38.5 21 38.5C11.3348 38.5 3.5 30.667 3.5 21C3.5 11.3365 11.3348 3.5 21 3.5C30.6652 3.5 38.5 11.3365 38.5 21Z" fill="#CA77C4"/>
<path id="Fill 4" d="M27.2535 27.6754C27.0243 27.6754 26.7933 27.6159 26.5815 27.4916L19.711 23.3931C19.3155 23.1551 19.0723 22.7264 19.0723 22.2644V13.4321C19.0723 12.7076 19.6603 12.1196 20.3848 12.1196C21.1093 12.1196 21.6973 12.7076 21.6973 13.4321V21.5189L27.9273 25.2341C28.5485 25.6069 28.7533 26.4119 28.3823 27.0349C28.1355 27.4461 27.6998 27.6754 27.2535 27.6754Z" fill="#CA77C4"/>
</g>
</g>
</svg>
