<svg width="42" height="42" viewBox="0 0 42 42" fill="none" xmlns="http://www.w3.org/2000/svg">
<g id="Iconly/Bulk/Discovery">
<g id="Discovery">
<path id="Fill 1" opacity="0.4" d="M38.5 21C38.5 30.6652 30.6652 38.5 21 38.5C11.3348 38.5 3.5 30.6652 3.5 21C3.5 11.3365 11.3348 3.5 21 3.5C30.6652 3.5 38.5 11.3365 38.5 21Z" fill="#4ABCBD"/>
<path id="Fill 4" d="M27.7547 15.2334L24.9197 24.1934C24.8147 24.5609 24.5172 24.8584 24.1497 24.9652L15.2247 27.7634C14.6297 27.9577 14.0522 27.3784 14.2447 26.7834L17.0447 17.8059C17.1497 17.4384 17.4472 17.1584 17.8147 17.0359L26.7747 14.2359C27.3872 14.0434 27.9472 14.6209 27.7547 15.2334Z" fill="#4ABCBD"/>
</g>
</g>
</svg>
