<svg width="134" height="134" viewBox="0 0 134 134" fill="none" xmlns="http://www.w3.org/2000/svg">
<circle cx="67" cy="67" r="67" fill="white" fill-opacity="0.6"/>
<path opacity="0.4" d="M35.334 64.0823C35.4923 71.4859 35.9357 84.1494 35.999 85.5459C36.2238 88.5321 37.367 91.5499 39.1467 93.6779C41.623 96.6641 44.6725 97.9973 48.9253 97.9973C54.8026 98.0289 61.2816 98.0289 67.5738 98.0289C73.8913 98.0289 80.022 98.0289 85.1995 97.9973C89.3921 97.9973 92.5366 96.6293 94.9813 93.6779C96.761 91.5499 97.9041 88.5004 98.0656 85.5459C98.129 84.3711 98.4456 70.6246 98.6356 64.0823H35.334Z" fill="#EB7F20"/>
<path d="M64.6104 77.7173V81.8149C64.6104 83.1259 65.6744 84.1899 66.9854 84.1899C68.2964 84.1899 69.3604 83.1259 69.3604 81.8149V77.7173C69.3604 76.4063 68.2964 75.3423 66.9854 75.3423C65.6744 75.3423 64.6104 76.4063 64.6104 77.7173Z" fill="#EB7F20"/>
<path fill-rule="evenodd" clip-rule="evenodd" d="M61.3355 75.0956C61.0188 76.2451 59.9137 76.9798 58.7167 76.8215C50.6385 75.6941 42.9182 72.8283 36.4012 68.5248C35.733 68.0878 35.334 67.3405 35.334 66.5425V55.5668C35.334 48.9168 40.7553 43.5081 47.4212 43.5081H53.65C54.2453 38.9101 58.1403 35.335 62.8967 35.335H71.073C75.8262 35.335 79.7243 38.9101 80.3197 43.5081H86.5802C93.227 43.5081 98.6357 48.9168 98.6357 55.5668V66.5425C98.6357 67.3405 98.2335 68.0846 97.5717 68.5248C91.042 72.8473 83.29 75.7258 75.158 76.85C75.0472 76.8658 74.9395 76.8721 74.8318 76.8721C73.7583 76.8721 72.7988 76.147 72.5297 75.083C71.89 72.5623 69.6005 70.7985 66.969 70.7985C64.3027 70.7985 62.0385 72.5243 61.3355 75.0956ZM71.073 40.085H62.8967C60.7655 40.085 58.9859 41.5416 58.4539 43.5081H75.5127C74.9807 41.5416 73.201 40.085 71.073 40.085Z" fill="#EB7F20"/>
</svg>
