<svg width="125" height="124" viewBox="0 0 125 124" fill="none" xmlns="http://www.w3.org/2000/svg">
    <path
        d="M55.1048 123.823L58.7203 115.411V74.073L55.1048 69.3488L50.4287 51.2711H8.29578L0.630859 69.3488C0.630859 99.2612 25.1923 123.823 55.1048 123.823Z"
        fill="#5E4ECD" />
    <path
        d="M55.1047 69.3488V82.0032C47.1264 82.0032 40.6426 88.487 40.6426 96.4653C40.6426 104.444 47.1264 110.927 55.1047 110.927V123.823C85.0172 123.823 109.338 99.2613 109.338 69.3488L102.613 65.7333H64.6979L55.1047 69.3488Z"
        fill="#96D2E4" />
    <path
        d="M109.338 29.578V15.1159H94.8756C94.8756 7.1376 88.3917 0.41272 80.4135 0.41272C72.4352 0.41272 65.9514 7.1376 65.9514 15.1159H55.1048L51.4893 21.3105V62.648L55.1048 69.3488H67.7591C67.7591 77.327 74.243 83.8109 82.2212 83.8109C90.1995 83.8109 96.6834 77.327 96.6834 69.3488H109.338V58.5022C117.316 58.5022 124.041 52.0184 124.041 44.0401C124.041 36.0618 117.316 29.578 109.338 29.578Z"
        fill="#F4DEEA" />
    <path
        d="M55.1048 27.7702V15.1158C25.1923 15.1158 0.630859 39.4363 0.630859 69.3488H13.5262C13.5262 61.3705 20.0101 54.8866 27.9883 54.8866C35.9666 54.8866 42.4505 61.3705 42.4505 69.3488H55.1048V56.6944C63.0831 56.6944 69.5669 50.2106 69.5669 42.2323C69.5669 34.254 63.0831 27.7702 55.1048 27.7702Z"
        fill="#E17FC2" />
</svg>