<svg width="134" height="134" viewBox="0 0 134 134" fill="none" xmlns="http://www.w3.org/2000/svg">
<circle cx="67" cy="67" r="67" fill="white" fill-opacity="0.6"/>
<path opacity="0.4" d="M81.8056 35.3333H52.2219C41.4412 35.3333 35.333 41.4414 35.333 52.2221V81.7777C35.333 92.5584 41.4412 98.6666 52.2219 98.6666H81.8056C92.5863 98.6666 98.6663 92.5584 98.6663 81.7777V52.2221C98.6663 41.4414 92.5863 35.3333 81.8056 35.3333Z" fill="#EB7F20"/>
<path d="M52.3336 58.6685C50.898 58.6685 49.7158 59.8507 49.7158 61.3144V83.0729C49.7158 84.5085 50.898 85.6907 52.3336 85.6907C53.7973 85.6907 54.9795 84.5085 54.9795 83.0729V61.3144C54.9795 59.8507 53.7973 58.6685 52.3336 58.6685Z" fill="#EB7F20"/>
<path d="M67.1119 48.2817C65.6764 48.2817 64.4941 49.464 64.4941 50.9277V83.0728C64.4941 84.5084 65.6764 85.6906 67.1119 85.6906C68.5756 85.6906 69.7578 84.5084 69.7578 83.0728V50.9277C69.7578 49.464 68.5756 48.2817 67.1119 48.2817Z" fill="#EB7F20"/>
<path d="M81.6928 70.1528C80.2291 70.1528 79.0469 71.3351 79.0469 72.7988V83.0728C79.0469 84.5084 80.2291 85.6906 81.6647 85.6906C83.1284 85.6906 84.3106 84.5084 84.3106 83.0728V72.7988C84.3106 71.3351 83.1284 70.1528 81.6928 70.1528Z" fill="#EB7F20"/>
</svg>
