<svg width="42" height="42" viewBox="0 0 42 42" fill="none" xmlns="http://www.w3.org/2000/svg">
<g id="Iconly/Bulk/Info Square">
<path id="Fill 1" opacity="0.4" d="M28.595 3.5H13.4225C7.49 3.5 3.5 7.665 3.5 13.86V28.1575C3.5 34.335 7.49 38.5 13.4225 38.5H28.595C34.5275 38.5 38.5 34.335 38.5 28.1575V13.86C38.5 7.665 34.5275 3.5 28.595 3.5Z" fill="#4ABCBD"/>
<path id="Combined Shape" fill-rule="evenodd" clip-rule="evenodd" d="M19.4677 14.3311C19.4677 15.1746 20.152 15.8623 20.9902 15.8623C21.853 15.8623 22.539 15.1746 22.539 14.3311C22.539 13.4876 21.853 12.7998 21.0077 12.7998C20.159 12.7998 19.4677 13.4876 19.4677 14.3311ZM22.5215 19.8836C22.5215 19.0401 21.8337 18.3523 20.9902 18.3523C20.1467 18.3523 19.459 19.0401 19.459 19.8836V27.6186C19.459 28.4621 20.1467 29.1498 20.9902 29.1498C21.8337 29.1498 22.5215 28.4621 22.5215 27.6186V19.8836Z" fill="#4ABCBD"/>
</g>
</svg>
