<svg width="134" height="134" viewBox="0 0 134 134" fill="none" xmlns="http://www.w3.org/2000/svg">
<circle cx="67" cy="67" r="67" fill="white" fill-opacity="0.6"/>
<path fill-rule="evenodd" clip-rule="evenodd" d="M77.2685 41.0024C77.2685 48.0355 82.9784 53.737 90.0218 53.737C90.7974 53.7332 91.571 53.6587 92.333 53.5146V78.7614C92.333 89.3828 86.0677 95.6667 75.4307 95.6667H52.2632C41.5983 95.6667 35.333 89.3828 35.333 78.7614V55.6277C35.333 45.0063 41.5983 38.6667 52.2632 38.6667H77.4913C77.3416 39.4363 77.267 40.2185 77.2685 41.0024ZM70.6413 73.1725L79.6911 61.4945V61.4389C80.4659 60.3978 80.2682 58.9298 79.2456 58.1301C78.7506 57.748 78.1217 57.5826 77.5025 57.6717C76.8832 57.7608 76.3266 58.0967 75.9598 58.6028L68.3301 68.4179L59.6423 61.5779C59.1463 61.1915 58.5153 61.0209 57.8918 61.1046C57.2683 61.1883 56.7048 61.5193 56.3286 62.0228L46.9725 74.0901C46.6436 74.5 46.4666 75.0107 46.4713 75.536C46.417 76.5975 47.0873 77.5617 48.1022 77.8821C49.1172 78.2024 50.2207 77.7982 50.7874 76.8984L58.612 66.7774L67.2998 73.5896C67.794 73.988 68.4291 74.1686 69.0593 74.0899C69.6895 74.0113 70.2606 73.6801 70.6413 73.1725Z" fill="#597EF7" fill-opacity="0.7"/>
<circle opacity="0.4" cx="90.7497" cy="40.2499" r="7.91667" fill="#597EF7" fill-opacity="0.7"/>
</svg>
