<svg width="134" height="134" viewBox="0 0 134 134" fill="none" xmlns="http://www.w3.org/2000/svg">
<circle cx="67" cy="67" r="67" fill="white" fill-opacity="0.6"/>
<path opacity="0.4" d="M80.2715 35.3333H53.7317C44.105 35.3333 38.5 40.9699 38.5 50.6283V83.3399C38.5 93.1566 44.105 98.6666 53.7317 98.6666H80.2715C90.0533 98.6666 95.5 93.1566 95.5 83.3399V50.6283C95.5 40.9699 90.0533 35.3333 80.2715 35.3333Z" fill="#5C57CE"/>
<path fill-rule="evenodd" clip-rule="evenodd" d="M54.5871 50.0579V50.0895C53.2223 50.0895 52.1171 51.1979 52.1171 52.5595C52.1171 53.9212 53.2223 55.0295 54.5871 55.0295H64.0523C65.4171 55.0295 66.5254 53.9212 66.5254 52.5247C66.5254 51.1662 65.4171 50.0579 64.0523 50.0579H54.5871ZM79.4138 69.3427H54.5871C53.2223 69.3427 52.1171 68.2344 52.1171 66.8727C52.1171 65.5111 53.2223 64.3996 54.5871 64.3996H79.4138C80.7754 64.3996 81.8838 65.5111 81.8838 66.8727C81.8838 68.2344 80.7754 69.3427 79.4138 69.3427ZM79.4137 83.8144H54.587C53.637 83.9411 52.7187 83.4661 52.212 82.6744C51.7054 81.8511 51.7054 80.8061 52.212 80.0144C52.7187 79.1911 53.637 78.7478 54.587 78.8428H79.4137C80.6772 78.9694 81.6304 80.0461 81.6304 81.3444C81.6304 82.6079 80.6772 83.6878 79.4137 83.8144Z" fill="#5C57CE"/>
</svg>
