<svg width="42" height="42" viewBox="0 0 42 42" fill="none" xmlns="http://www.w3.org/2000/svg">
<path fill-rule="evenodd" clip-rule="evenodd" d="M26.6749 8.29073C26.6749 12.1775 29.8303 15.3283 33.7228 15.3283C34.1514 15.3262 34.5789 15.285 35 15.2054V29.1576C35 35.0273 31.5376 38.5 25.6593 38.5H12.8561C6.96238 38.5 3.5 35.0273 3.5 29.1576V16.3732C3.5 10.5034 6.96238 7 12.8561 7H26.798C26.7153 7.42526 26.674 7.85753 26.6749 8.29073ZM23.0124 26.069L28.0137 19.6154V19.5846C28.4418 19.0093 28.3326 18.1981 27.7675 17.7561C27.4939 17.545 27.1463 17.4536 26.8041 17.5028C26.4619 17.552 26.1543 17.7377 25.9516 18.0173L21.7352 23.4415L16.934 19.6615C16.6599 19.4479 16.3112 19.3536 15.9667 19.3999C15.6221 19.4462 15.3107 19.6291 15.1028 19.9073L9.93233 26.5761C9.75059 26.8026 9.65274 27.0849 9.65534 27.3751C9.62533 27.9617 9.99577 28.4946 10.5566 28.6717C11.1175 28.8487 11.7274 28.6253 12.0405 28.1281L16.3647 22.5349L21.1658 26.2995C21.4389 26.5197 21.7899 26.6195 22.1382 26.576C22.4864 26.5325 22.802 26.3495 23.0124 26.069Z" fill="#4ABCBD"/>
<circle opacity="0.4" cx="34.125" cy="7.875" r="4.375" fill="#4ABCBD"/>
</svg>
