<svg width="42" height="42" viewBox="0 0 42 42" fill="none" xmlns="http://www.w3.org/2000/svg">
<g id="Iconly/Bulk/Document">
<g id="Document">
<path id="Path" opacity="0.4" d="M28.3342 3.5H13.6675C8.3475 3.5 5.25 6.615 5.25 11.9525V30.03C5.25 35.455 8.3475 38.5 13.6675 38.5H28.3342C33.74 38.5 36.75 35.455 36.75 30.03V11.9525C36.75 6.615 33.74 3.5 28.3342 3.5Z" fill="#CA77C4"/>
<path id="Combined Shape" fill-rule="evenodd" clip-rule="evenodd" d="M14.1397 11.6372V11.6547C13.3855 11.6547 12.7747 12.2672 12.7747 13.0197C12.7747 13.7722 13.3855 14.3847 14.1397 14.3847H19.3705C20.1247 14.3847 20.7372 13.7722 20.7372 13.0005C20.7372 12.2497 20.1247 11.6372 19.3705 11.6372H14.1397ZM27.8597 22.2945H14.1397C13.3855 22.2945 12.7747 21.682 12.7747 20.9295C12.7747 20.177 13.3855 19.5628 14.1397 19.5628H27.8597C28.6122 19.5628 29.2247 20.177 29.2247 20.9295C29.2247 21.682 28.6122 22.2945 27.8597 22.2945ZM27.8597 30.2922H14.1397C13.6147 30.3622 13.1072 30.0997 12.8272 29.6622C12.5472 29.2072 12.5472 28.6297 12.8272 28.1922C13.1072 27.7372 13.6147 27.4922 14.1397 27.5447H27.8597C28.5579 27.6147 29.0847 28.2097 29.0847 28.9272C29.0847 29.6255 28.5579 30.2222 27.8597 30.2922Z" fill="#CA77C4"/>
</g>
</g>
</svg>
