<svg width="88" height="63" viewBox="0 0 88 63" fill="none" xmlns="http://www.w3.org/2000/svg">
<path d="M37.9131 18.6995C37.0013 20.094 35.875 21.864 34.6414 23.8485C33.9173 23.178 33.1932 22.5076 32.4155 21.8372C32.2546 21.7031 32.0937 21.569 31.9328 21.4349C22.8416 13.6846 16.0836 15.4278 12.2218 17.895C9.88869 19.3968 8.60145 21.1667 8.521 21.274C12.0073 14.65 15.9495 11.7537 19.838 10.976C19.838 10.976 19.838 10.976 19.8648 10.976C20.2135 10.8956 20.5889 10.8419 20.9376 10.8151C23.1098 10.6006 25.2552 10.976 27.2397 11.7269C30.2433 12.8264 32.9787 14.7037 35.0704 16.3395C36.1163 17.1709 37.0281 17.9486 37.7254 18.5654C37.8058 18.5922 37.8595 18.6459 37.9131 18.6995Z" fill="url(#paint0_linear)"/>
<path opacity="0.2" d="M27.2665 11.6735C19.0604 11.7004 14.6623 14.7576 12.2487 17.8684C9.91555 19.3702 8.6283 21.1402 8.54785 21.2474C12.0341 14.6235 15.9763 11.7272 19.8649 10.9495C19.8649 10.9495 19.8649 10.9495 19.8917 10.9495C20.2671 10.8958 20.6158 10.8422 20.9644 10.7886C23.1366 10.5472 25.282 10.9495 27.2665 11.6735Z" fill="black"/>
<path d="M27.0253 11.5928C26.4621 11.4587 13.6969 8.66968 7.82386 22.8562C3.85485 32.4301 4.79348 36.7477 6.91207 38.8395C7.63614 39.5636 8.52111 40.0195 9.37928 40.3413C9.78154 40.5022 10.2106 40.6095 10.5861 40.7167C10.5861 40.7167 9.13792 40.7704 7.36795 40.2877C4.90073 39.644 1.7899 38.035 0.904916 34.0123C0.690375 33.1274 0.609916 32.1083 0.663551 30.9551C1.6558 10.7346 15.2255 7.38244 27.0253 11.5928Z" fill="url(#paint1_linear)"/>
<path opacity="0.2" d="M9.37919 40.3684C9.32556 40.3684 8.44058 40.3148 7.3947 40.3148C4.92748 39.6711 1.81662 38.0621 0.931641 34.0394C1.7898 35.9971 3.50615 38.1962 6.91198 38.8666C7.66288 39.5907 8.52103 40.0466 9.37919 40.3684C9.40601 40.3416 9.40601 40.3684 9.37919 40.3684Z" fill="black"/>
<path d="M87.4991 41.5482C87.4991 42.3528 87.499 43.1036 87.4722 43.8277C87.3918 44.8736 87.2309 45.6513 87.07 46.2145C86.9895 47.2604 85.8095 53.9916 76.5575 54.0989C76.3697 54.0989 76.2088 54.0989 76.0211 54.0989C71.3548 54.0184 67.8417 52.8116 65.0259 51.0417C79.6951 54.6352 78.0861 37.4183 77.4425 30.2044C76.8256 22.9904 65.1332 9.28664 56.5247 7.27532C47.9163 5.26399 42.7405 12.022 39.2273 16.7688C38.8519 17.2783 38.4228 17.9219 37.9133 18.6728C37.0015 20.0673 35.8751 21.8373 34.6415 23.8218C30.0825 31.1966 23.9413 41.575 20.5623 46.3218C15.7619 53.053 10.157 52.0875 10.157 52.0875C-1.40134 51.7121 0.663607 30.9285 0.663607 30.9285C0.663607 30.9285 1.01224 39.6978 8.01164 39.6978C15.011 39.6978 16.9151 38.3569 22.7881 33.1811C26.3281 30.0435 29.3585 25.5381 31.933 21.4082C33.0593 19.5846 34.1052 17.8415 35.0706 16.3129C35.5533 15.562 35.9824 14.8379 36.4383 14.1943C39.7101 9.36709 47.3263 -0.662699 56.4711 0.034559C65.6159 0.731817 77.5497 11.2711 83.7714 26.7985C86.4532 33.5029 87.3382 38.2497 87.4991 41.4946C87.4991 41.5214 87.4991 41.5482 87.4991 41.5482Z" fill="url(#paint2_linear)"/>
<path d="M87.4991 41.5483C87.4991 42.3528 87.4723 43.1037 87.4723 43.8278C87.0969 57.2098 83.4228 61.3397 75.9944 62.8415C68.1904 64.3969 58.4288 54.099 54.5135 49.7009C50.8663 45.571 47.8627 36.3725 35.178 24.3582C34.9902 24.1973 34.8293 24.0096 34.6416 23.8487C35.8752 21.8642 36.9747 20.0942 37.9134 18.6997C38.1011 18.8606 38.2888 19.0483 38.5033 19.2629C43.4378 24.0632 52.0999 36.3993 55.9348 41.4947C58.3216 44.686 60.896 48.4673 64.9991 51.0418C67.815 52.8117 71.3281 54.0185 75.9944 54.099C76.1821 54.099 76.343 54.099 76.5307 54.099C86.775 53.9112 87.4455 42.8892 87.4991 41.4947C87.4991 41.5215 87.4991 41.5483 87.4991 41.5483Z" fill="url(#paint3_linear)"/>
<path opacity="0.2" d="M38.5034 19.2361L35.2048 24.3315C35.0171 24.1706 34.8562 23.9829 34.6685 23.822C35.9021 21.8375 37.0016 20.0675 37.9402 18.673C38.1011 18.8607 38.3157 19.0484 38.5034 19.2361Z" fill="black"/>
<defs>
<linearGradient id="paint0_linear" x1="83.909" y1="59.833" x2="2.44261" y2="5.84341" gradientUnits="userSpaceOnUse">
<stop stop-color="#FF0000"/>
<stop offset="0.3463" stop-color="#FF9D00"/>
<stop offset="0.6874" stop-color="#4BFF00"/>
<stop offset="1" stop-color="#00E0E5"/>
</linearGradient>
<linearGradient id="paint1_linear" x1="17.5166" y1="1.78705" x2="9.75274" y2="40.7557" gradientUnits="userSpaceOnUse">
<stop stop-color="#004CE5"/>
<stop offset="0.6743" stop-color="#00FF8B"/>
<stop offset="1" stop-color="#FFE000"/>
</linearGradient>
<linearGradient id="paint2_linear" x1="0.550143" y1="27.0566" x2="87.4943" y2="27.0566" gradientUnits="userSpaceOnUse">
<stop stop-color="#FF00FF"/>
<stop offset="0.3238" stop-color="#004CE5"/>
<stop offset="0.6743" stop-color="#00FF8B"/>
<stop offset="1" stop-color="#FFE000"/>
</linearGradient>
<linearGradient id="paint3_linear" x1="85.8926" y1="56.8434" x2="4.42431" y2="2.85254" gradientUnits="userSpaceOnUse">
<stop stop-color="#FF0000"/>
<stop offset="0.3463" stop-color="#FF9D00"/>
<stop offset="0.6874" stop-color="#4BFF00"/>
<stop offset="1" stop-color="#00E0E5"/>
</linearGradient>
</defs>
</svg>
