<svg className="w-32" viewBox="0 0 221 212" fill="none" xmlns="http://www.w3.org/2000/svg">
    <path d="M34.4036 42H0.222684C0.136399 42 0.0906175 41.8981 0.147942 41.8336L35.815 1.7081C35.8773 1.638 35.9932 1.68452 35.9897 1.77824L34.5036 41.9037C34.5016 41.9575 34.4574 42 34.4036 42Z" fill="#CA4DC1"/>
    <path fillRule="evenodd" clipRule="evenodd" d="M200 0H215C218.314 0 221 2.68629 221 6V21V34V160.006C221 168.481 215.906 176.125 208.084 179.387L135.584 209.628C130.411 211.786 124.589 211.786 119.416 209.628L46.9157 179.387C39.0941 176.125 34 168.481 34 160.006V34V21V6C34 2.68629 36.6863 0 40 0H55H200Z" fill="#CA77C4"/>
    <path d="M73.584 80.696H86.48V86H62.82V84.492C67.9853 78.8413 71.712 74.6293 74 71.856C76.3227 69.048 77.8653 66.916 78.628 65.46C79.3907 64.004 79.772 62.5653 79.772 61.144C79.772 60.1387 79.5467 59.2547 79.096 58.492C78.68 57.7293 78.0733 57.14 77.276 56.724C76.5133 56.2733 75.612 56.048 74.572 56.048C72.9427 56.048 71.6253 56.5333 70.62 57.504C69.6493 58.44 69.164 59.6707 69.164 61.196V61.976H63.548V61.196C63.548 58.076 64.5533 55.5627 66.564 53.656C68.5747 51.7147 71.2267 50.744 74.52 50.744C77.744 50.744 80.3613 51.7147 82.372 53.656C84.4173 55.5973 85.44 58.0933 85.44 61.144C85.44 62.7387 85.1453 64.2813 84.556 65.772C84.0013 67.2627 82.8573 69.1867 81.124 71.544C79.4253 73.8667 76.912 76.9173 73.584 80.696ZM109.836 86.624C104.463 86.624 99.9908 84.856 96.4201 81.32C92.8841 77.7493 91.1161 73.2427 91.1161 67.8C91.1161 62.3573 92.8841 57.868 96.4201 54.332C99.9908 50.7613 104.463 48.976 109.836 48.976C112.679 48.976 115.313 49.5307 117.74 50.64C120.167 51.7493 122.195 53.3267 123.824 55.372C125.488 57.4173 126.632 59.792 127.256 62.496H121.224C120.357 60.0693 118.919 58.18 116.908 56.828C114.897 55.4413 112.54 54.748 109.836 54.748C106.196 54.748 103.18 55.9787 100.788 58.44C98.3961 60.9013 97.2001 64.0387 97.2001 67.852C97.2001 71.6307 98.3961 74.7507 100.788 77.212C103.18 79.6387 106.196 80.852 109.836 80.852C112.609 80.852 115.019 80.124 117.064 78.668C119.109 77.1773 120.531 75.1493 121.328 72.584H127.412C126.476 76.848 124.413 80.2627 121.224 82.828C118.035 85.3587 114.239 86.624 109.836 86.624ZM156.346 49.6H162.326V86H156.346V70.14H139.706V86H133.726V49.6H139.706V64.472H156.346V49.6ZM192.566 55.216H177.538V65.512H191.214V70.972H177.538V86H171.558V49.6H192.566V55.216Z" fill="white"/>
    <path d="M84.5356 102.046C85.4956 102.046 86.3596 102.268 87.1276 102.712C87.8956 103.144 88.4956 103.75 88.9276 104.53C89.3596 105.31 89.5756 106.18 89.5756 107.14C89.5756 108.604 89.0956 109.822 88.1356 110.794C87.1876 111.754 85.9876 112.234 84.5356 112.234C83.2876 112.234 82.2136 111.844 81.3136 111.064V115.492H79.3156V102.28H80.6656L81.0436 103.468C81.9796 102.52 83.1436 102.046 84.5356 102.046ZM82.1056 109.426C82.7056 110.026 83.4616 110.326 84.3736 110.326C85.2976 110.326 86.0596 110.026 86.6596 109.426C87.2596 108.814 87.5596 108.052 87.5596 107.14C87.5596 106.228 87.2596 105.472 86.6596 104.872C86.0596 104.26 85.3036 103.954 84.3916 103.954C83.7916 103.954 83.2456 104.092 82.7536 104.368C82.2616 104.644 81.8776 105.028 81.6016 105.52C81.3376 106 81.2056 106.54 81.2056 107.14C81.2056 108.052 81.5056 108.814 82.1056 109.426ZM100.96 107.158C100.96 107.338 100.948 107.56 100.924 107.824H93.0397C93.1597 108.604 93.4837 109.222 94.0117 109.678C94.5517 110.134 95.2177 110.362 96.0097 110.362C96.3937 110.362 96.7537 110.308 97.0897 110.2C97.4257 110.08 97.7197 109.918 97.9717 109.714C98.2357 109.498 98.4517 109.24 98.6197 108.94H100.726C100.342 109.972 99.7297 110.782 98.8897 111.37C98.0497 111.946 97.0897 112.234 96.0097 112.234C94.5817 112.234 93.3877 111.748 92.4277 110.776C91.4797 109.804 91.0057 108.592 91.0057 107.14C91.0057 105.688 91.4797 104.476 92.4277 103.504C93.3877 102.532 94.5817 102.046 96.0097 102.046C96.9817 102.046 97.8457 102.28 98.6017 102.748C99.3577 103.204 99.9397 103.822 100.348 104.602C100.756 105.37 100.96 106.222 100.96 107.158ZM96.0097 103.846C95.2657 103.846 94.6297 104.056 94.1017 104.476C93.5857 104.896 93.2437 105.472 93.0757 106.204H98.9617C98.8417 105.712 98.6437 105.292 98.3677 104.944C98.0917 104.584 97.7497 104.314 97.3417 104.134C96.9457 103.942 96.5017 103.846 96.0097 103.846ZM107.743 102.226H108.607V104.116H107.563C105.907 104.116 105.079 105.016 105.079 106.816V112H103.081V102.28H104.431L104.773 103.612C105.469 102.688 106.459 102.226 107.743 102.226ZM122.344 102.28H123.892V112H122.272L122.074 110.812C121.138 111.76 119.968 112.234 118.564 112.234C117.112 112.234 115.9 111.748 114.928 110.776C113.968 109.804 113.488 108.592 113.488 107.14C113.488 105.676 113.968 104.464 114.928 103.504C115.9 102.532 117.112 102.046 118.564 102.046C119.992 102.046 121.174 102.526 122.11 103.486L122.344 102.28ZM116.422 109.426C117.034 110.026 117.796 110.326 118.708 110.326C119.632 110.326 120.388 110.026 120.976 109.426C121.576 108.814 121.876 108.052 121.876 107.14C121.876 106.216 121.576 105.454 120.976 104.854C120.388 104.254 119.632 103.954 118.708 103.954C118.108 103.954 117.562 104.092 117.07 104.368C116.59 104.644 116.212 105.028 115.936 105.52C115.66 106 115.522 106.54 115.522 107.14C115.522 108.052 115.822 108.814 116.422 109.426ZM134.283 98.788H136.281V112H134.769L134.517 110.902C133.581 111.79 132.435 112.234 131.079 112.234C129.615 112.234 128.403 111.754 127.443 110.794C126.495 109.822 126.021 108.604 126.021 107.14C126.021 105.676 126.495 104.464 127.443 103.504C128.403 102.532 129.615 102.046 131.079 102.046C132.315 102.046 133.383 102.424 134.283 103.18V98.788ZM128.973 109.426C129.573 110.026 130.329 110.326 131.241 110.326C132.153 110.326 132.909 110.026 133.509 109.426C134.121 108.814 134.427 108.052 134.427 107.14C134.427 106.54 134.289 106 134.013 105.52C133.737 105.028 133.353 104.644 132.861 104.368C132.381 104.092 131.841 103.954 131.241 103.954C130.641 103.954 130.095 104.092 129.603 104.368C129.123 104.644 128.745 105.028 128.469 105.52C128.205 106 128.073 106.54 128.073 107.14C128.073 108.052 128.373 108.814 128.973 109.426ZM146.676 98.788H148.674V112H147.162L146.91 110.902C145.974 111.79 144.828 112.234 143.472 112.234C142.008 112.234 140.796 111.754 139.836 110.794C138.888 109.822 138.414 108.604 138.414 107.14C138.414 105.676 138.888 104.464 139.836 103.504C140.796 102.532 142.008 102.046 143.472 102.046C144.708 102.046 145.776 102.424 146.676 103.18V98.788ZM141.366 109.426C141.966 110.026 142.722 110.326 143.634 110.326C144.546 110.326 145.302 110.026 145.902 109.426C146.514 108.814 146.82 108.052 146.82 107.14C146.82 106.54 146.682 106 146.406 105.52C146.13 105.028 145.746 104.644 145.254 104.368C144.774 104.092 144.234 103.954 143.634 103.954C143.034 103.954 142.488 104.092 141.996 104.368C141.516 104.644 141.138 105.028 140.862 105.52C140.598 106 140.466 106.54 140.466 107.14C140.466 108.052 140.766 108.814 141.366 109.426ZM159.716 110.794C158.732 111.754 157.496 112.234 156.008 112.234C154.52 112.234 153.278 111.754 152.282 110.794C151.298 109.822 150.806 108.604 150.806 107.14C150.806 106.18 151.028 105.31 151.472 104.53C151.928 103.75 152.552 103.144 153.344 102.712C154.148 102.268 155.036 102.046 156.008 102.046C156.98 102.046 157.862 102.268 158.654 102.712C159.458 103.144 160.082 103.75 160.526 104.53C160.982 105.31 161.21 106.18 161.21 107.14C161.21 108.604 160.712 109.822 159.716 110.794ZM156.008 110.326C156.62 110.326 157.166 110.194 157.646 109.93C158.126 109.654 158.498 109.276 158.762 108.796C159.038 108.304 159.176 107.752 159.176 107.14C159.176 106.216 158.876 105.454 158.276 104.854C157.688 104.254 156.932 103.954 156.008 103.954C155.084 103.954 154.322 104.254 153.722 104.854C153.134 105.454 152.84 106.216 152.84 107.14C152.84 108.064 153.134 108.826 153.722 109.426C154.322 110.026 155.084 110.326 156.008 110.326ZM168.487 102.064C169.615 102.064 170.509 102.442 171.169 103.198C171.841 103.954 172.177 104.938 172.177 106.15V112H170.179V106.546C170.179 105.67 169.987 105.004 169.603 104.548C169.231 104.08 168.679 103.846 167.947 103.846C167.191 103.846 166.567 104.122 166.075 104.674C165.583 105.226 165.337 105.934 165.337 106.798V112H163.339V102.28H164.725L165.121 103.63C165.493 103.138 165.967 102.754 166.543 102.478C167.131 102.202 167.779 102.064 168.487 102.064ZM174.762 114.592V113.548C175.506 113.368 175.878 112.852 175.878 112H174.654V109.714H176.922V111.838C176.922 112.606 176.73 113.224 176.346 113.692C175.962 114.16 175.434 114.46 174.762 114.592ZM74.731 138.234C73.399 138.234 72.331 137.838 71.527 137.046C70.723 136.254 70.321 135.204 70.321 133.896V128.28H72.319V133.608C72.319 134.46 72.535 135.126 72.967 135.606C73.399 136.086 73.987 136.326 74.731 136.326C75.487 136.326 76.081 136.086 76.513 135.606C76.945 135.114 77.161 134.448 77.161 133.608V128.28H79.159V133.896C79.159 135.204 78.757 136.254 77.953 137.046C77.149 137.838 76.075 138.234 74.731 138.234ZM85.078 138.234C83.89 138.234 82.936 137.934 82.216 137.334C81.496 136.734 81.124 135.93 81.1 134.922H83.062C83.086 135.414 83.284 135.798 83.656 136.074C84.04 136.338 84.538 136.47 85.15 136.47C85.51 136.47 85.828 136.422 86.104 136.326C86.392 136.23 86.62 136.086 86.788 135.894C86.956 135.702 87.04 135.474 87.04 135.21C87.04 135.03 86.998 134.874 86.914 134.742C86.83 134.598 86.728 134.484 86.608 134.4C86.488 134.316 86.314 134.238 86.086 134.166C85.87 134.094 85.672 134.04 85.492 134.004C85.324 133.968 85.096 133.926 84.808 133.878C84.508 133.83 84.268 133.788 84.088 133.752C83.908 133.716 83.68 133.662 83.404 133.59C83.128 133.506 82.9 133.422 82.72 133.338C82.552 133.242 82.366 133.122 82.162 132.978C81.958 132.834 81.796 132.672 81.676 132.492C81.568 132.312 81.472 132.096 81.388 131.844C81.316 131.58 81.28 131.292 81.28 130.98C81.28 130.104 81.622 129.396 82.306 128.856C83.002 128.316 83.914 128.046 85.042 128.046C86.17 128.046 87.076 128.328 87.76 128.892C88.444 129.456 88.792 130.212 88.804 131.16H86.914C86.902 130.704 86.728 130.356 86.392 130.116C86.056 129.864 85.594 129.738 85.006 129.738C84.454 129.738 84.016 129.846 83.692 130.062C83.368 130.278 83.206 130.56 83.206 130.908C83.206 131.052 83.23 131.178 83.278 131.286C83.326 131.394 83.404 131.49 83.512 131.574C83.632 131.658 83.74 131.73 83.836 131.79C83.944 131.838 84.1 131.886 84.304 131.934C84.508 131.982 84.676 132.018 84.808 132.042C84.94 132.066 85.132 132.096 85.384 132.132C85.708 132.192 85.948 132.24 86.104 132.276C86.272 132.3 86.506 132.354 86.806 132.438C87.106 132.51 87.34 132.588 87.508 132.672C87.676 132.756 87.868 132.876 88.084 133.032C88.312 133.176 88.48 133.344 88.588 133.536C88.708 133.716 88.81 133.944 88.894 134.22C88.978 134.496 89.02 134.796 89.02 135.12C89.02 136.068 88.66 136.824 87.94 137.388C87.22 137.952 86.266 138.234 85.078 138.234ZM100.388 133.158C100.388 133.338 100.376 133.56 100.352 133.824H92.4684C92.5884 134.604 92.9124 135.222 93.4404 135.678C93.9804 136.134 94.6464 136.362 95.4384 136.362C95.8224 136.362 96.1824 136.308 96.5184 136.2C96.8544 136.08 97.1484 135.918 97.4004 135.714C97.6644 135.498 97.8804 135.24 98.0484 134.94H100.154C99.7704 135.972 99.1584 136.782 98.3184 137.37C97.4784 137.946 96.5184 138.234 95.4384 138.234C94.0104 138.234 92.8164 137.748 91.8564 136.776C90.9084 135.804 90.4344 134.592 90.4344 133.14C90.4344 131.688 90.9084 130.476 91.8564 129.504C92.8164 128.532 94.0104 128.046 95.4384 128.046C96.4104 128.046 97.2744 128.28 98.0304 128.748C98.7864 129.204 99.3684 129.822 99.7764 130.602C100.184 131.37 100.388 132.222 100.388 133.158ZM95.4384 129.846C94.6944 129.846 94.0584 130.056 93.5304 130.476C93.0144 130.896 92.6724 131.472 92.5044 132.204H98.3904C98.2704 131.712 98.0724 131.292 97.7964 130.944C97.5204 130.584 97.1784 130.314 96.7704 130.134C96.3744 129.942 95.9304 129.846 95.4384 129.846ZM107.172 128.226H108.036V130.116H106.992C105.336 130.116 104.508 131.016 104.508 132.816V138H102.51V128.28H103.86L104.202 129.612C104.898 128.688 105.888 128.226 107.172 128.226ZM123.555 138H121.341C121.041 137.676 120.753 137.358 120.477 137.046C119.469 137.814 118.263 138.198 116.859 138.198C115.695 138.198 114.759 137.886 114.051 137.262C113.343 136.626 112.989 135.786 112.989 134.742C112.989 134.178 113.103 133.656 113.331 133.176C113.571 132.696 113.853 132.306 114.177 132.006C114.501 131.706 114.903 131.406 115.383 131.106C114.879 130.422 114.531 129.852 114.339 129.396C114.159 128.94 114.069 128.484 114.069 128.028C114.069 127.164 114.375 126.48 114.987 125.976C115.599 125.46 116.409 125.202 117.417 125.202C118.401 125.202 119.193 125.46 119.793 125.976C120.405 126.48 120.711 127.146 120.711 127.974C120.711 128.406 120.633 128.802 120.477 129.162C120.333 129.51 120.111 129.834 119.811 130.134C119.511 130.422 119.217 130.662 118.929 130.854C118.653 131.046 118.299 131.274 117.867 131.538C118.479 132.294 119.319 133.278 120.387 134.49C120.771 133.83 120.969 133.08 120.981 132.24H122.673C122.649 133.632 122.289 134.832 121.593 135.84C122.097 136.404 122.751 137.124 123.555 138ZM117.417 126.714C116.949 126.714 116.571 126.834 116.283 127.074C115.995 127.314 115.851 127.632 115.851 128.028C115.851 128.52 116.193 129.252 116.877 130.224C117.213 130.044 117.483 129.888 117.687 129.756C117.903 129.612 118.113 129.444 118.317 129.252C118.533 129.06 118.689 128.862 118.785 128.658C118.893 128.442 118.947 128.22 118.947 127.992C118.947 127.608 118.803 127.302 118.515 127.074C118.239 126.834 117.873 126.714 117.417 126.714ZM117.039 136.434C117.879 136.434 118.629 136.2 119.289 135.732C118.041 134.34 117.081 133.236 116.409 132.42C115.917 132.744 115.533 133.086 115.257 133.446C114.993 133.806 114.861 134.214 114.861 134.67C114.861 134.934 114.915 135.18 115.023 135.408C115.131 135.624 115.275 135.81 115.455 135.966C115.647 136.11 115.875 136.224 116.139 136.308C116.415 136.392 116.715 136.434 117.039 136.434ZM140.03 128.064C141.05 128.064 141.878 128.412 142.514 129.108C143.15 129.804 143.468 130.71 143.468 131.826V138H141.47V132.312C141.47 131.796 141.392 131.352 141.236 130.98C141.092 130.608 140.876 130.326 140.588 130.134C140.312 129.942 139.976 129.846 139.58 129.846C138.92 129.846 138.374 130.116 137.942 130.656C137.51 131.184 137.294 131.862 137.294 132.69V138H135.332V132.312C135.332 131.52 135.17 130.914 134.846 130.494C134.522 130.062 134.054 129.846 133.442 129.846C132.794 129.846 132.248 130.116 131.804 130.656C131.372 131.184 131.156 131.862 131.156 132.69V138H129.158V128.28H130.58L130.922 129.54C131.294 129.072 131.744 128.712 132.272 128.46C132.8 128.196 133.358 128.064 133.946 128.064C134.594 128.064 135.17 128.214 135.674 128.514C136.178 128.814 136.574 129.228 136.862 129.756C137.21 129.228 137.666 128.814 138.23 128.514C138.794 128.214 139.394 128.064 140.03 128.064ZM154.364 136.794C153.38 137.754 152.144 138.234 150.656 138.234C149.168 138.234 147.926 137.754 146.93 136.794C145.946 135.822 145.454 134.604 145.454 133.14C145.454 132.18 145.676 131.31 146.12 130.53C146.576 129.75 147.2 129.144 147.992 128.712C148.796 128.268 149.684 128.046 150.656 128.046C151.628 128.046 152.51 128.268 153.302 128.712C154.106 129.144 154.73 129.75 155.174 130.53C155.63 131.31 155.858 132.18 155.858 133.14C155.858 134.604 155.36 135.822 154.364 136.794ZM150.656 136.326C151.268 136.326 151.814 136.194 152.294 135.93C152.774 135.654 153.146 135.276 153.41 134.796C153.686 134.304 153.824 133.752 153.824 133.14C153.824 132.216 153.524 131.454 152.924 130.854C152.336 130.254 151.58 129.954 150.656 129.954C149.732 129.954 148.97 130.254 148.37 130.854C147.782 131.454 147.488 132.216 147.488 133.14C147.488 134.064 147.782 134.826 148.37 135.426C148.97 136.026 149.732 136.326 150.656 136.326ZM163.134 128.064C164.262 128.064 165.156 128.442 165.816 129.198C166.488 129.954 166.824 130.938 166.824 132.15V138H164.826V132.546C164.826 131.67 164.634 131.004 164.25 130.548C163.878 130.08 163.326 129.846 162.594 129.846C161.838 129.846 161.214 130.122 160.722 130.674C160.23 131.226 159.984 131.934 159.984 132.798V138H157.986V128.28H159.372L159.768 129.63C160.14 129.138 160.614 128.754 161.19 128.478C161.778 128.202 162.426 128.064 163.134 128.064ZM173.785 136.182H174.883V138H173.407C172.699 138 172.087 137.862 171.571 137.586C171.055 137.31 170.659 136.914 170.383 136.398C170.107 135.87 169.969 135.252 169.969 134.544V129.99H168.223V129.612L171.607 126.012H171.949V128.28H174.829V129.99H171.967V134.382C171.967 134.958 172.123 135.402 172.435 135.714C172.747 136.026 173.197 136.182 173.785 136.182ZM181.978 128.064C183.118 128.064 184.018 128.43 184.678 129.162C185.338 129.894 185.668 130.89 185.668 132.15V138H183.67V132.546C183.67 131.958 183.586 131.466 183.418 131.07C183.25 130.674 182.998 130.374 182.662 130.17C182.338 129.954 181.93 129.846 181.438 129.846C180.682 129.846 180.058 130.122 179.566 130.674C179.074 131.226 178.828 131.934 178.828 132.798V138H176.83V124.788H178.828V129.378C179.62 128.502 180.67 128.064 181.978 128.064Z" fill="white"/>
</svg>