<svg className="w-32" viewBox="0 0 221 212" fill="none" xmlns="http://www.w3.org/2000/svg">
    <path d="M34.4036 42H0.222684C0.136399 42 0.0906175 41.8981 0.147942 41.8336L35.815 1.7081C35.8773 1.638 35.9932 1.68452 35.9897 1.77824L34.5036 41.9037C34.5016 41.9575 34.4574 42 34.4036 42Z" fill="#389596"/>
    <path fillRule="evenodd" clipRule="evenodd" d="M200 0H215C218.314 0 221 2.68629 221 6V21V34V160.006C221 168.481 215.906 176.125 208.084 179.387L135.584 209.628C130.411 211.786 124.589 211.786 119.416 209.628L46.9157 179.387C39.0941 176.125 34 168.481 34 160.006V34V21V6C34 2.68629 36.6863 0 40 0H55H200Z" fill="#4ABCBD"/>
    <path d="M92.636 68.216H77.608V78.512H91.284V83.972H77.608V99H71.628V62.6H92.636V68.216ZM119.797 99L111.997 85.532H105.081V99H99.1007V62.6H113.297C115.585 62.6 117.665 63.0853 119.537 64.056C121.409 65.0267 122.865 66.396 123.905 68.164C124.979 69.932 125.517 71.908 125.517 74.092C125.517 76.5533 124.841 78.7373 123.489 80.644C122.137 82.516 120.334 83.868 118.081 84.7L126.505 99H119.797ZM105.081 68.216V79.916H112.933C113.903 79.916 114.787 79.7773 115.585 79.5C116.417 79.2227 117.11 78.824 117.665 78.304C118.219 77.784 118.653 77.16 118.965 76.432C119.277 75.704 119.433 74.9067 119.433 74.04C119.433 72.3413 118.826 70.9547 117.613 69.88C116.434 68.7707 114.874 68.216 112.933 68.216H105.081ZM138.952 93.332H154.708V99H132.972V62.6H154.136V68.216H138.952V77.68H152.784V83.192H138.952V93.332ZM167.846 93.332H183.602V99H161.866V62.6H183.03V68.216H167.846V77.68H181.678V83.192H167.846V93.332Z" fill="white"/>
    <path d="M75.93 115.37V117.026H73.194V125H71.196V117.026H69.378V115.37H71.196V114.542C71.196 112.49 72.228 111.464 74.292 111.464H75.912V113.066H74.688C74.136 113.066 73.734 113.186 73.482 113.426C73.242 113.666 73.122 114.056 73.122 114.596V115.37H75.93ZM85.5554 123.794C84.5714 124.754 83.3354 125.234 81.8474 125.234C80.3594 125.234 79.1174 124.754 78.1214 123.794C77.1374 122.822 76.6454 121.604 76.6454 120.14C76.6454 119.18 76.8674 118.31 77.3114 117.53C77.7674 116.75 78.3914 116.144 79.1834 115.712C79.9874 115.268 80.8754 115.046 81.8474 115.046C82.8194 115.046 83.7014 115.268 84.4934 115.712C85.2974 116.144 85.9214 116.75 86.3654 117.53C86.8214 118.31 87.0494 119.18 87.0494 120.14C87.0494 121.604 86.5514 122.822 85.5554 123.794ZM81.8474 123.326C82.4594 123.326 83.0054 123.194 83.4854 122.93C83.9654 122.654 84.3374 122.276 84.6014 121.796C84.8774 121.304 85.0154 120.752 85.0154 120.14C85.0154 119.216 84.7154 118.454 84.1154 117.854C83.5274 117.254 82.7714 116.954 81.8474 116.954C80.9234 116.954 80.1614 117.254 79.5614 117.854C78.9734 118.454 78.6794 119.216 78.6794 120.14C78.6794 121.064 78.9734 121.826 79.5614 122.426C80.1614 123.026 80.9234 123.326 81.8474 123.326ZM93.8399 115.226H94.7039V117.116H93.6599C92.0039 117.116 91.1759 118.016 91.1759 119.816V125H89.1779V115.28H90.5279L90.8699 116.612C91.5659 115.688 92.5559 115.226 93.8399 115.226ZM109.539 120.158C109.539 120.338 109.527 120.56 109.503 120.824H101.619C101.739 121.604 102.063 122.222 102.591 122.678C103.131 123.134 103.797 123.362 104.589 123.362C104.973 123.362 105.333 123.308 105.669 123.2C106.005 123.08 106.299 122.918 106.551 122.714C106.815 122.498 107.031 122.24 107.199 121.94H109.305C108.921 122.972 108.309 123.782 107.469 124.37C106.629 124.946 105.669 125.234 104.589 125.234C103.161 125.234 101.967 124.748 101.007 123.776C100.059 122.804 99.5848 121.592 99.5848 120.14C99.5848 118.688 100.059 117.476 101.007 116.504C101.967 115.532 103.161 115.046 104.589 115.046C105.561 115.046 106.425 115.28 107.181 115.748C107.937 116.204 108.519 116.822 108.927 117.602C109.335 118.37 109.539 119.222 109.539 120.158ZM104.589 116.846C103.845 116.846 103.209 117.056 102.681 117.476C102.165 117.896 101.823 118.472 101.655 119.204H107.541C107.421 118.712 107.223 118.292 106.947 117.944C106.671 117.584 106.329 117.314 105.921 117.134C105.525 116.942 105.081 116.846 104.589 116.846ZM118.039 115.28H120.091L116.095 125H114.259L110.155 115.28H112.261L115.177 122.498L118.039 115.28ZM130.685 120.158C130.685 120.338 130.673 120.56 130.649 120.824H122.765C122.885 121.604 123.209 122.222 123.737 122.678C124.277 123.134 124.943 123.362 125.735 123.362C126.119 123.362 126.479 123.308 126.815 123.2C127.151 123.08 127.445 122.918 127.697 122.714C127.961 122.498 128.177 122.24 128.345 121.94H130.451C130.067 122.972 129.455 123.782 128.615 124.37C127.775 124.946 126.815 125.234 125.735 125.234C124.307 125.234 123.113 124.748 122.153 123.776C121.205 122.804 120.731 121.592 120.731 120.14C120.731 118.688 121.205 117.476 122.153 116.504C123.113 115.532 124.307 115.046 125.735 115.046C126.707 115.046 127.571 115.28 128.327 115.748C129.083 116.204 129.665 116.822 130.073 117.602C130.481 118.37 130.685 119.222 130.685 120.158ZM125.735 116.846C124.991 116.846 124.355 117.056 123.827 117.476C123.311 117.896 122.969 118.472 122.801 119.204H128.687C128.567 118.712 128.369 118.292 128.093 117.944C127.817 117.584 127.475 117.314 127.067 117.134C126.671 116.942 126.227 116.846 125.735 116.846ZM137.469 115.226H138.333V117.116H137.289C135.633 117.116 134.805 118.016 134.805 119.816V125H132.807V115.28H134.157L134.499 116.612C135.195 115.688 136.185 115.226 137.469 115.226ZM146.821 115.28H148.963L144.499 125.18C143.935 126.416 143.359 127.274 142.771 127.754C142.195 128.246 141.421 128.492 140.449 128.492H139.459V126.692H140.287C140.923 126.692 141.391 126.566 141.691 126.314C141.991 126.062 142.321 125.54 142.681 124.748L142.897 124.298L138.667 115.28H140.845L143.923 122.066L146.821 115.28ZM158.364 123.794C157.38 124.754 156.144 125.234 154.656 125.234C153.168 125.234 151.926 124.754 150.93 123.794C149.946 122.822 149.454 121.604 149.454 120.14C149.454 119.18 149.676 118.31 150.12 117.53C150.576 116.75 151.2 116.144 151.992 115.712C152.796 115.268 153.684 115.046 154.656 115.046C155.628 115.046 156.51 115.268 157.302 115.712C158.106 116.144 158.73 116.75 159.174 117.53C159.63 118.31 159.858 119.18 159.858 120.14C159.858 121.604 159.36 122.822 158.364 123.794ZM154.656 123.326C155.268 123.326 155.814 123.194 156.294 122.93C156.774 122.654 157.146 122.276 157.41 121.796C157.686 121.304 157.824 120.752 157.824 120.14C157.824 119.216 157.524 118.454 156.924 117.854C156.336 117.254 155.58 116.954 154.656 116.954C153.732 116.954 152.97 117.254 152.37 117.854C151.782 118.454 151.488 119.216 151.488 120.14C151.488 121.064 151.782 121.826 152.37 122.426C152.97 123.026 153.732 123.326 154.656 123.326ZM167.134 115.064C168.262 115.064 169.156 115.442 169.816 116.198C170.488 116.954 170.824 117.938 170.824 119.15V125H168.826V119.546C168.826 118.67 168.634 118.004 168.25 117.548C167.878 117.08 167.326 116.846 166.594 116.846C165.838 116.846 165.214 117.122 164.722 117.674C164.23 118.226 163.984 118.934 163.984 119.798V125H161.986V115.28H163.372L163.768 116.63C164.14 116.138 164.614 115.754 165.19 115.478C165.778 115.202 166.426 115.064 167.134 115.064ZM182.769 120.158C182.769 120.338 182.757 120.56 182.733 120.824H174.849C174.969 121.604 175.293 122.222 175.821 122.678C176.361 123.134 177.027 123.362 177.819 123.362C178.203 123.362 178.563 123.308 178.899 123.2C179.235 123.08 179.529 122.918 179.781 122.714C180.045 122.498 180.261 122.24 180.429 121.94H182.535C182.151 122.972 181.539 123.782 180.699 124.37C179.859 124.946 178.899 125.234 177.819 125.234C176.391 125.234 175.197 124.748 174.237 123.776C173.289 122.804 172.815 121.592 172.815 120.14C172.815 118.688 173.289 117.476 174.237 116.504C175.197 115.532 176.391 115.046 177.819 115.046C178.791 115.046 179.655 115.28 180.411 115.748C181.167 116.204 181.749 116.822 182.157 117.602C182.565 118.37 182.769 119.222 182.769 120.158ZM177.819 116.846C177.075 116.846 176.439 117.056 175.911 117.476C175.395 117.896 175.053 118.472 174.885 119.204H180.771C180.651 118.712 180.453 118.292 180.177 117.944C179.901 117.584 179.559 117.314 179.151 117.134C178.755 116.942 178.311 116.846 177.819 116.846Z" fill="white"/>
</svg>